<?xml version="1.0" encoding="UTF-8" standalone="no"?>
<!-- Created with Inkscape (http://www.inkscape.org/) -->

<svg
   width="35.925152mm"
   height="45.797607mm"
   viewBox="0 0 35.925152 45.797607"
   version="1.1"
   id="svg1"
   inkscape:version="1.4.2 (ebf0e940, 2025-05-08)"
   sodipodi:docname="mflower_logo_대각.svg"
   xmlns:inkscape="http://www.inkscape.org/namespaces/inkscape"
   xmlns:sodipodi="http://sodipodi.sourceforge.net/DTD/sodipodi-0.dtd"
   xmlns="http://www.w3.org/2000/svg"
   xmlns:svg="http://www.w3.org/2000/svg">
  <sodipodi:namedview
     id="namedview1"
     pagecolor="#ffffff"
     bordercolor="#000000"
     borderopacity="0.25"
     inkscape:showpageshadow="2"
     inkscape:pageopacity="0.0"
     inkscape:pagecheckerboard="0"
     inkscape:deskcolor="#d1d1d1"
     inkscape:document-units="mm"
     inkscape:zoom="2.0450978"
     inkscape:cx="98.772781"
     inkscape:cy="95.349962"
     inkscape:window-width="1200"
     inkscape:window-height="775"
     inkscape:window-x="106"
     inkscape:window-y="88"
     inkscape:window-maximized="0"
     inkscape:current-layer="layer1" />
  <defs
     id="defs1">
    <clipPath
       clipPathUnits="userSpaceOnUse"
       id="clipPath150">
      <path
         d="M 0,595.28 H 841.89 V 0 H 0 Z"
         transform="translate(-746.11282,-386.19431)"
         id="path150" />
    </clipPath>
    <clipPath
       clipPathUnits="userSpaceOnUse"
       id="clipPath152">
      <path
         d="M 0,595.28 H 841.89 V 0 H 0 Z"
         transform="translate(-700.12652,-375.92041)"
         id="path152" />
    </clipPath>
    <clipPath
       clipPathUnits="userSpaceOnUse"
       id="clipPath154">
      <path
         d="M 0,595.28 H 841.89 V 0 H 0 Z"
         transform="translate(-746.11282,-372.63771)"
         id="path154" />
    </clipPath>
    <clipPath
       clipPathUnits="userSpaceOnUse"
       id="clipPath156">
      <path
         d="M 0,595.28 H 841.89 V 0 H 0 Z"
         transform="translate(-746.11282,-366.77201)"
         id="path156" />
    </clipPath>
    <clipPath
       clipPathUnits="userSpaceOnUse"
       id="clipPath158">
      <path
         d="M 0,595.28 H 841.89 V 0 H 0 Z"
         transform="translate(-705.47852,-372.46731)"
         id="path158" />
    </clipPath>
    <clipPath
       clipPathUnits="userSpaceOnUse"
       id="clipPath160">
      <path
         d="M 0,595.28 H 841.89 V 0 H 0 Z"
         transform="translate(-740.98002,-358.77201)"
         id="path160" />
    </clipPath>
    <clipPath
       clipPathUnits="userSpaceOnUse"
       id="clipPath162">
      <path
         d="M 0,595.28 H 841.89 V 0 H 0 Z"
         transform="translate(-716.94732,-456.73631)"
         id="path162" />
    </clipPath>
    <clipPath
       clipPathUnits="userSpaceOnUse"
       id="clipPath164">
      <path
         d="M 0,595.28 H 841.89 V 0 H 0 Z"
         transform="translate(-725.90672,-463.53131)"
         id="path164" />
    </clipPath>
    <clipPath
       clipPathUnits="userSpaceOnUse"
       id="clipPath166">
      <path
         d="M 0,595.28 H 841.89 V 0 H 0 Z"
         id="path166" />
    </clipPath>
    <clipPath
       clipPathUnits="userSpaceOnUse"
       id="clipPath168">
      <path
         d="M 0,595.28 H 841.89 V 0 H 0 Z"
         id="path168" />
    </clipPath>
    <clipPath
       clipPathUnits="userSpaceOnUse"
       id="clipPath170">
      <path
         d="M 0,595.28 H 841.89 V 0 H 0 Z"
         transform="translate(-696.41852,-463.74171)"
         id="path170" />
    </clipPath>
    <clipPath
       clipPathUnits="userSpaceOnUse"
       id="clipPath172">
      <path
         d="M 0,595.28 H 841.89 V 0 H 0 Z"
         transform="translate(-722.61282,-451.69681)"
         id="path172" />
    </clipPath>
    <clipPath
       clipPathUnits="userSpaceOnUse"
       id="clipPath174">
      <path
         d="M 0,595.28 H 841.89 V 0 H 0 Z"
         transform="translate(-706.40532,-437.26951)"
         id="path174" />
    </clipPath>
    <clipPath
       clipPathUnits="userSpaceOnUse"
       id="clipPath176">
      <path
         d="M 0,595.28 H 841.89 V 0 H 0 Z"
         id="path176" />
    </clipPath>
    <clipPath
       clipPathUnits="userSpaceOnUse"
       id="clipPath178">
      <path
         d="M 0,595.28 H 841.89 V 0 H 0 Z"
         transform="translate(-726.15972,-420.03131)"
         id="path178" />
    </clipPath>
    <clipPath
       clipPathUnits="userSpaceOnUse"
       id="clipPath180">
      <path
         d="M 0,595.28 H 841.89 V 0 H 0 Z"
         transform="translate(-716.12112,-397.23001)"
         id="path180" />
    </clipPath>
    <clipPath
       clipPathUnits="userSpaceOnUse"
       id="clipPath182">
      <path
         d="M 0,595.28 H 841.89 V 0 H 0 Z"
         id="path182" />
    </clipPath>
    <clipPath
       clipPathUnits="userSpaceOnUse"
       id="clipPath184">
      <path
         d="M 0,595.28 H 841.89 V 0 H 0 Z"
         transform="translate(-674.85161,-414.16941)"
         id="path184" />
    </clipPath>
    <clipPath
       clipPathUnits="userSpaceOnUse"
       id="clipPath186">
      <path
         d="M 0,595.28 H 841.89 V 0 H 0 Z"
         transform="translate(-696.41852,-419.77591)"
         id="path186" />
    </clipPath>
    <clipPath
       clipPathUnits="userSpaceOnUse"
       id="clipPath188">
      <path
         d="M 0,595.28 H 841.89 V 0 H 0 Z"
         transform="translate(-732.55422,-375.32471)"
         id="path188" />
    </clipPath>
    <clipPath
       clipPathUnits="userSpaceOnUse"
       id="clipPath190">
      <path
         d="M 0,595.28 H 841.89 V 0 H 0 Z"
         transform="translate(-738.69822,-449.70071)"
         id="path190" />
    </clipPath>
    <clipPath
       clipPathUnits="userSpaceOnUse"
       id="clipPath192">
      <path
         d="M 0,595.28 H 841.89 V 0 H 0 Z"
         transform="translate(-751.97559,-470.53421)"
         id="path192" />
    </clipPath>
    <clipPath
       clipPathUnits="userSpaceOnUse"
       id="clipPath194">
      <path
         d="M 0,595.28 H 841.89 V 0 H 0 Z"
         transform="translate(-670.91942,-369.42141)"
         id="path194" />
    </clipPath>
    <clipPath
       clipPathUnits="userSpaceOnUse"
       id="clipPath196">
      <path
         d="M 0,595.28 H 841.89 V 0 H 0 Z"
         transform="translate(-675.44432,-369.42141)"
         id="path196" />
    </clipPath>
    <clipPath
       clipPathUnits="userSpaceOnUse"
       id="clipPath198">
      <path
         d="M 0,595.28 H 841.89 V 0 H 0 Z"
         transform="translate(-679.30472,-367.09381)"
         id="path198" />
    </clipPath>
    <clipPath
       clipPathUnits="userSpaceOnUse"
       id="clipPath200">
      <path
         d="M 0,595.28 H 841.89 V 0 H 0 Z"
         transform="translate(-684.63572,-369.42141)"
         id="path200" />
    </clipPath>
    <clipPath
       clipPathUnits="userSpaceOnUse"
       id="clipPath202">
      <path
         d="M 0,595.28 H 841.89 V 0 H 0 Z"
         transform="translate(-692.35642,-369.42141)"
         id="path202" />
    </clipPath>
    <clipPath
       clipPathUnits="userSpaceOnUse"
       id="clipPath204">
      <path
         d="M 0,595.28 H 841.89 V 0 H 0 Z"
         transform="translate(-696.96731,-369.42141)"
         id="path204" />
    </clipPath>
    <clipPath
       clipPathUnits="userSpaceOnUse"
       id="clipPath206">
      <path
         d="M 0,595.28 H 841.89 V 0 H 0 Z"
         id="path206" />
    </clipPath>
    <clipPath
       clipPathUnits="userSpaceOnUse"
       id="clipPath208">
      <path
         d="M 0,595.28 H 841.89 V 0 H 0 Z"
         transform="translate(-706.79882,-369.42141)"
         id="path208" />
    </clipPath>
    <clipPath
       clipPathUnits="userSpaceOnUse"
       id="clipPath210">
      <path
         d="M 0,595.28 H 841.89 V 0 H 0 Z"
         transform="translate(-714.48342,-369.42141)"
         id="path210" />
    </clipPath>
    <clipPath
       clipPathUnits="userSpaceOnUse"
       id="clipPath212">
      <path
         d="M 0,595.28 H 841.89 V 0 H 0 Z"
         transform="translate(-719.64892,-369.42141)"
         id="path212" />
    </clipPath>
    <clipPath
       clipPathUnits="userSpaceOnUse"
       id="clipPath214">
      <path
         d="M 0,595.28 H 841.89 V 0 H 0 Z"
         transform="translate(-725.73582,-369.45461)"
         id="path214" />
    </clipPath>
    <clipPath
       clipPathUnits="userSpaceOnUse"
       id="clipPath216">
      <path
         d="M 0,595.28 H 841.89 V 0 H 0 Z"
         transform="translate(-729.60742,-369.42141)"
         id="path216" />
    </clipPath>
    <clipPath
       clipPathUnits="userSpaceOnUse"
       id="clipPath218">
      <path
         d="M 0,595.28 H 841.89 V 0 H 0 Z"
         transform="translate(-735.54642,-368.48241)"
         id="path218" />
    </clipPath>
  </defs>
  <g
     inkscape:label="Layer 1"
     inkscape:groupmode="layer"
     id="layer1"
     transform="translate(-60.324993,-111.65417)">
    <path
       id="path149"
       d="m 0,0 v 92.768 c 0,4.867 -3.946,8.815 -8.815,8.815 h -66.183 c -4.867,0 -8.815,-3.948 -8.815,-8.815 V 14.858 C -67.572,14.516 -40.606,11.489 -15.81,-2.627 -10.315,-1.123 -5.034,-0.296 0,0"
       style="fill:#195a31;fill-opacity:1;fill-rule:nonzero;stroke:none"
       transform="matrix(0.35277776,0,0,-0.35277776,89.892463,147.49039)"
       clip-path="url(#clipPath150)" />
    <path
       id="path151"
       d="M 0,0 C 2.648,-0.449 5.335,-1.081 8.031,-1.835 15.715,2.657 23.123,5.711 30.176,7.646 5.38,21.763 -21.585,24.79 -37.827,25.132 V -0.598 C -25.849,1.883 -13.034,2.215 0,0"
       style="fill:#12733d;fill-opacity:1;fill-rule:nonzero;stroke:none"
       transform="matrix(0.35277776,0,0,-0.35277776,73.669518,151.1148)"
       clip-path="url(#clipPath152)" />
    <path
       id="path153"
       d="M 0,0 V 13.556 C -5.034,13.26 -10.315,12.435 -15.81,10.929 -10.392,7.843 -5.076,4.232 0,0"
       style="fill:#12733d;fill-opacity:1;fill-rule:nonzero;stroke:none"
       transform="matrix(0.35277776,0,0,-0.35277776,89.892463,152.27286)"
       clip-path="url(#clipPath154)" />
    <path
       id="path155"
       d="M 0,0 V 5.866 C -5.076,10.098 -10.392,13.709 -15.81,16.795 -22.864,14.86 -30.271,11.806 -37.954,7.313 -26.578,4.133 -14.999,-1.534 -5.133,-8 -2.106,-6.605 0,-3.551 0,0"
       style="fill:#008745;fill-opacity:1;fill-rule:nonzero;stroke:none"
       transform="matrix(0.35277776,0,0,-0.35277776,89.892463,154.34215)"
       clip-path="url(#clipPath156)" />
    <path
       id="path157"
       d="M 0,0 C 0.896,0.56 1.792,1.098 2.679,1.618 -0.017,2.372 -2.704,3.004 -5.35,3.453 -18.388,5.668 -31.199,5.336 -43.179,2.854 v -8.549 c 0,-4.868 3.948,-8.815 8.815,-8.815 h 17.79 C -12.396,-9.296 -6.986,-4.355 0,0"
       style="fill:#008745;fill-opacity:1;fill-rule:nonzero;stroke:none"
       transform="matrix(0.35277776,0,0,-0.35277776,75.557584,152.33297)"
       clip-path="url(#clipPath158)" />
    <path
       id="path159"
       d="m 0,0 c -9.866,6.466 -21.445,12.133 -32.823,15.313 -0.887,-0.52 -1.782,-1.058 -2.678,-1.618 C -42.487,9.34 -47.898,4.399 -52.076,-0.814 h 48.394 c 1.317,0 2.561,0.295 3.682,0.814"
       style="fill:#009f4c;fill-opacity:1;fill-rule:nonzero;stroke:none"
       transform="matrix(0.35277776,0,0,-0.35277776,88.081724,157.16437)"
       clip-path="url(#clipPath160)" />
    <path
       id="path161"
       d="M 0,0 H 3.137 V 10.364 H -7.394 V 7.226 H 0 Z"
       style="fill:#ffffff;fill-opacity:1;fill-rule:nonzero;stroke:none"
       transform="matrix(0.39833534,0,0,-0.40437411,79.492657,137.20367)"
       clip-path="url(#clipPath162)" />
    <path
       id="path163"
       d="M 0,0 H 3.137 V 10.362 H -7.392 V 7.226 H 0 Z"
       style="fill:#ffffff;fill-opacity:1;fill-rule:nonzero;stroke:none"
       transform="matrix(0.39833534,0,0,-0.40437411,83.061503,134.45595)"
       clip-path="url(#clipPath164)" />
    <path
       id="path165"
       d="m 684.387,450.439 h -6.393 v 6.396 h 6.393 z m 3.138,9.532 h -12.674 v -12.669 h 12.674 z"
       style="fill:#ffffff;fill-opacity:1;fill-rule:nonzero;stroke:none"
       transform="matrix(0.42285064,0,0,-0.49479245,-220.09081,346.96589)"
       clip-path="url(#clipPath166)" />
    <path
       id="path167"
       d="m 681.011,440.566 h 12.271 v -5.823 h -12.271 z m -3.136,-8.962 h 18.544 v 12.1 h -18.544 z"
       style="fill:#ffffff;fill-opacity:1;fill-rule:nonzero;stroke:none"
       transform="matrix(0.42285064,0,0,-0.49479245,-220.09081,346.96589)"
       clip-path="url(#clipPath168)" />
    <path
       id="path169"
       d="m 0,0 v 3.004 h -3.137 v -10.723 -2.385 -6.674 H 0 v 6.674 2.385 c 0,4.395 3.577,7.971 7.973,7.971 V 3.391 C 4.845,3.391 2.021,2.087 0,0"
       style="fill:#ffffff;fill-opacity:1;fill-rule:nonzero;stroke:none"
       transform="matrix(0.42285064,0,0,-0.49479245,74.390215,117.50998)"
       clip-path="url(#clipPath170)" />
    <path
       id="path171"
       d="M 0,0 C 2.087,2.021 3.391,4.847 3.391,7.975 H 0.25 C 0.25,3.577 -3.327,0 -7.723,0 h -0.357 -9.351 v -3.138 h 9.351 0.357 18.69 V 0 Z"
       style="fill:#ffffff;fill-opacity:1;fill-rule:nonzero;stroke:none"
       transform="matrix(0.39833534,0,0,-0.40437411,81.749426,139.24152)"
       clip-path="url(#clipPath172)" />
    <path
       id="path173"
       d="m 0,0 h 13.583 l -6.29,-6.292 2.219,-2.218 5.229,5.229 5.108,-5.113 2.219,2.221 L 15.896,0 h 5.338 V 3.138 H 0 Z"
       style="fill:#ffffff;fill-opacity:1;fill-rule:nonzero;stroke:none"
       transform="matrix(0.39833534,0,0,-0.40437411,75.293406,145.07554)"
       clip-path="url(#clipPath174)" />
    <path
       id="path175"
       d="m 727.639,446.055 h -13.108 v -3.136 h 13.108 z"
       style="fill:#ffffff;fill-opacity:1;fill-rule:nonzero;stroke:none"
       transform="matrix(0.39833534,0,0,-0.40437411,-206.0928,321.89602)"
       clip-path="url(#clipPath176)" />
    <path
       id="path187"
       d="m 0,0 h -18.576 c -0.414,0 -0.781,0.272 -0.903,0.67 -0.684,2.249 -2.238,2.397 -2.3,2.403 L -34.973,3.071 C -34.981,3.067 -36.531,2.919 -37.219,0.67 -37.34,0.272 -37.705,0 -38.121,0 h -18.574 c -4.773,0 -8.656,3.883 -8.656,8.654 v 90.583 c 0,4.772 3.883,8.655 8.656,8.655 H 0 c 4.771,0 8.653,-3.883 8.653,-8.655 V 8.654 C 8.653,3.883 4.771,0 0,0 M -17.911,1.889 H 0 c 3.729,0 6.765,3.035 6.765,6.765 v 90.583 c 0,3.731 -3.036,6.767 -6.765,6.767 h -56.695 c -3.73,0 -6.768,-3.036 -6.768,-6.767 V 8.654 c 0,-3.73 3.038,-6.765 6.768,-6.765 h 17.909 c 1.21,2.921 3.661,3.065 3.771,3.07 l 13.291,0.001 c 0.15,-0.006 2.602,-0.15 3.813,-3.071"
       style="fill:#ffffff;fill-opacity:1;fill-rule:nonzero;stroke:none"
       transform="matrix(0.35277776,0,0,-0.35277776,85.109289,151.32494)"
       clip-path="url(#clipPath188)" />
    <path
       id="path189"
       d="m 0,0 c 0,0.292 0.085,0.56 0.226,0.794 0.028,0.038 0.051,0.075 0.078,0.115 1.998,3.015 6.271,8.675 11.332,10.789 0,0 -6.668,1.071 -13.023,-8.217 C -1.437,3.41 -1.484,3.345 -1.533,3.274 -1.628,3.187 -1.755,3.128 -1.898,3.128 -2.19,3.128 -2.424,3.36 -2.441,3.646 -2.441,3.646 0,-0.716 0,0"
       style="fill:#1a5a32;fill-opacity:1;fill-rule:nonzero;stroke:none"
       transform="matrix(0.35277776,0,0,-0.35277776,87.276755,125.08674)"
       clip-path="url(#clipPath190)" />
    <path
       id="path191"
       d="m 0,0 c -11.116,-1.448 -14.617,-11.876 -15.664,-16.91 -0.019,-0.094 -0.038,-0.188 -0.055,-0.278 0.017,-0.285 0.251,-0.518 0.544,-0.518 0.142,0 0.267,0.059 0.364,0.146 0.05,0.072 0.097,0.137 0.146,0.208 6.355,9.287 13.026,8.216 13.026,8.216 -5.063,-2.114 -9.336,-7.774 -11.337,-10.789 -0.024,-0.04 -0.047,-0.076 -0.075,-0.115 -0.141,-0.233 -0.226,-0.501 -0.226,-0.793 0,-0.717 0.491,-1.312 1.152,-1.484 0.079,-0.013 0.155,-0.029 0.232,-0.041 5.381,-0.858 9.224,0.641 11.893,2.732 3.931,3.076 5.314,7.435 5.314,7.435 1.687,5.49 6.845,10.7 6.845,10.7 C 7.326,0.073 3.327,0.434 0,0"
       style="fill:#8cc63f;fill-opacity:1;fill-rule:nonzero;stroke:none"
       transform="matrix(0.35277776,0,0,-0.35277776,91.960719,117.73715)"
       clip-path="url(#clipPath192)" />
    <path
       id="path193"
       d="M 0,0 H 3.281 V -0.926 H 0.948 V -1.911 H 3.003 V -2.836 H 0.948 V -4.629 H 0 Z"
       style="fill:#ffffff;fill-opacity:1;fill-rule:nonzero;stroke:none"
       transform="matrix(0.35277776,0,0,-0.35277776,63.365902,153.4075)"
       clip-path="url(#clipPath194)" />
    <path
       id="path195"
       d="M 0,0 H 0.946 V -3.704 H 3.095 V -4.629 H 0 Z"
       style="fill:#ffffff;fill-opacity:1;fill-rule:nonzero;stroke:none"
       transform="matrix(0.35277776,0,0,-0.35277776,64.962186,153.4075)"
       clip-path="url(#clipPath196)" />
    <path
       id="path197"
       d="m 0,0 v 0.013 c 0,1.316 0.965,2.394 2.295,2.394 1.33,0 2.284,-1.065 2.284,-2.381 V 0.013 C 4.579,-1.303 3.612,-2.381 2.284,-2.381 0.954,-2.381 0,-1.316 0,0 M 3.589,0 V 0.013 C 3.589,0.806 3.045,1.468 2.284,1.468 1.52,1.468 0.992,0.82 0.992,0.026 V 0.013 c 0,-0.793 0.539,-1.455 1.303,-1.455 0.764,0 1.294,0.648 1.294,1.442"
       style="fill:#ffffff;fill-opacity:1;fill-rule:nonzero;stroke:none"
       transform="matrix(0.35277776,0,0,-0.35277776,66.324049,154.22862)"
       clip-path="url(#clipPath198)" />
    <path
       id="path199"
       d="M 0,0 H 1.014 L 1.907,-3.135 2.873,0.014 H 3.686 L 4.651,-3.135 5.543,0 h 0.99 L 5.063,-4.664 H 4.238 L 3.268,-1.633 2.295,-4.664 H 1.47 Z"
       style="fill:#ffffff;fill-opacity:1;fill-rule:nonzero;stroke:none"
       transform="matrix(0.35277776,0,0,-0.35277776,68.204708,153.4075)"
       clip-path="url(#clipPath200)" />
    <path
       id="path201"
       d="M 0,0 H 3.25 V -0.905 H 0.94 v -0.94 H 2.971 V -2.75 H 0.94 V -3.723 H 3.281 V -4.629 H 0 Z"
       style="fill:#ffffff;fill-opacity:1;fill-rule:nonzero;stroke:none"
       transform="matrix(0.35277776,0,0,-0.35277776,70.9284,153.4075)"
       clip-path="url(#clipPath202)" />
    <path
       id="path203"
       d="m 0,0 h 1.97 c 0.545,0 0.973,-0.165 1.254,-0.469 0.241,-0.26 0.37,-0.622 0.37,-1.058 v -0.014 c 0,-0.747 -0.376,-1.217 -0.923,-1.435 L 3.724,-4.629 H 2.616 L 1.693,-3.148 H 1.681 0.948 V -4.629 H 0 Z m 1.907,-2.248 c 0.464,0 0.728,0.265 0.728,0.653 v 0.014 c 0,0.438 -0.283,0.662 -0.747,0.662 h -0.94 v -1.329 z"
       style="fill:#ffffff;fill-opacity:1;fill-rule:nonzero;stroke:none"
       transform="matrix(0.35277776,0,0,-0.35277776,72.555021,153.4075)"
       clip-path="url(#clipPath204)" />
    <path
       id="path205"
       d="m 704.283,369.421 h 0.948 v -4.628 h -0.948 z"
       style="fill:#ffffff;fill-opacity:1;fill-rule:nonzero;stroke:none"
       transform="matrix(0.35277776,0,0,-0.35277776,-173.31955,283.73116)"
       clip-path="url(#clipPath206)" />
    <path
       id="path207"
       d="M 0,0 H 0.874 L 2.891,-2.851 V 0 H 3.828 V -4.629 H 3.021 L 0.935,-1.687 V -4.629 H 0 Z"
       style="fill:#ffffff;fill-opacity:1;fill-rule:nonzero;stroke:none"
       transform="matrix(0.35277776,0,0,-0.35277776,76.023357,153.4075)"
       clip-path="url(#clipPath208)" />
    <path
       id="path209"
       d="M 0,0 H 0.948 V -1.831 H 2.696 V 0 H 3.642 V -4.629 H 2.696 v 1.858 H 0.948 V -4.629 H 0 Z"
       style="fill:#ffffff;fill-opacity:1;fill-rule:nonzero;stroke:none"
       transform="matrix(0.35277776,0,0,-0.35277776,78.734312,153.4075)"
       clip-path="url(#clipPath210)" />
    <path
       id="path211"
       d="M 0,0 H 3.247 V -0.905 H 0.942 v -0.94 H 2.971 V -2.75 H 0.942 V -3.723 H 3.279 V -4.629 H 0 Z"
       style="fill:#ffffff;fill-opacity:1;fill-rule:nonzero;stroke:none"
       transform="matrix(0.35277776,0,0,-0.35277776,80.556587,153.4075)"
       clip-path="url(#clipPath212)" />
    <path
       id="path213"
       d="M 0,0 H 0.872 L 2.719,-4.663 H 1.729 L 1.333,-3.624 H -0.486 L -0.88,-4.663 h -0.969 z m 0.998,-2.726 -0.574,1.502 -0.57,-1.502 z"
       style="fill:#ffffff;fill-opacity:1;fill-rule:nonzero;stroke:none"
       transform="matrix(0.35277776,0,0,-0.35277776,82.703909,153.39578)"
       clip-path="url(#clipPath214)" />
    <path
       id="path215"
       d="m 0,0 h 1.97 c 0.548,0 0.971,-0.165 1.254,-0.469 0.239,-0.26 0.371,-0.622 0.371,-1.058 v -0.014 c 0,-0.747 -0.377,-1.217 -0.924,-1.435 L 3.724,-4.629 H 2.616 L 1.693,-3.148 H 1.682 0.948 V -4.629 H 0 Z m 1.908,-2.248 c 0.459,0 0.725,0.265 0.725,0.653 v 0.014 c 0,0.438 -0.283,0.662 -0.744,0.662 H 0.948 v -1.329 z"
       style="fill:#ffffff;fill-opacity:1;fill-rule:nonzero;stroke:none"
       transform="matrix(0.35277776,0,0,-0.35277776,84.069725,153.4075)"
       clip-path="url(#clipPath216)" />
    <path
       id="path217"
       d="m 0,0 h -1.311 v 0.939 h 3.57 V 0 H 0.946 V -3.69 H 0 Z"
       style="fill:#ffffff;fill-opacity:1;fill-rule:nonzero;stroke:none"
       transform="matrix(0.35277776,0,0,-0.35277776,86.16487,153.73876)"
       clip-path="url(#clipPath218)" />
  </g>
</svg>
